<svg width="186" height="126" viewBox="0 0 186 126" fill="none" xmlns="http://www.w3.org/2000/svg">
<g opacity="0.5">
<path d="M18.7291 124.229L45.9819 3.42142H27.1083V2.20113H76.0821L48.4225 124.229H18.7291ZM0.994385 124.229V123.009H66.5639V124.229H0.994385Z" fill="#343434"/>
<path d="M109.576 125.856C101.82 125.856 95.1494 124.039 89.5632 120.405C83.9771 116.772 79.6654 112.026 76.6283 106.169C73.5912 100.257 72.0726 93.8846 72.0726 87.051C72.0726 77.6685 73.2386 68.6926 75.5707 60.1236C77.957 51.5003 81.2111 43.5821 85.3329 36.3689C89.509 29.1015 94.3359 22.8102 99.8135 17.4953C105.345 12.1261 111.284 7.97711 117.63 5.04845C123.975 2.06555 130.51 0.574097 137.235 0.574097C144.937 0.574097 151.58 2.39096 157.167 6.02467C162.807 9.60415 167.119 14.3497 170.101 20.2612C173.139 26.1728 174.657 32.5453 174.657 39.3789C174.657 48.7615 173.491 57.7644 171.159 66.3877C168.827 74.9567 165.573 82.875 161.397 90.1424C157.221 97.3556 152.367 103.647 146.835 109.016C141.357 114.331 135.446 118.48 129.1 121.463C122.755 124.391 116.247 125.856 109.576 125.856ZM109.576 124.717C112.45 124.717 115.243 123.28 117.955 120.405C120.667 117.531 123.27 113.653 125.765 108.772C128.26 103.837 130.565 98.2776 132.68 92.0948C134.849 85.9121 136.801 79.4853 138.537 72.8145C140.273 66.1436 141.737 59.5812 142.93 53.1273C144.177 46.6734 145.126 40.7348 145.777 35.3113C146.482 29.8336 146.835 25.305 146.835 21.7256C146.835 18.8511 146.699 16.2208 146.428 13.8344C146.211 11.3939 145.75 9.27874 145.045 7.489C144.394 5.64502 143.418 4.23493 142.116 3.25871C140.869 2.22825 139.242 1.71303 137.235 1.71303C134.307 1.71303 131.486 3.12312 128.775 5.94331C126.063 8.70927 123.46 12.5057 120.965 17.3326C118.47 22.1052 116.138 27.5286 113.969 33.6029C111.854 39.6772 109.928 46.0226 108.193 52.6392C106.457 59.2558 104.966 65.8182 103.718 72.3264C102.525 78.7803 101.576 84.8003 100.871 90.3865C100.22 95.9726 99.8949 100.745 99.8949 104.704C99.8949 107.525 100.003 110.155 100.22 112.595C100.491 115.036 100.952 117.178 101.603 119.022C102.308 120.812 103.285 122.222 104.532 123.253C105.834 124.229 107.515 124.717 109.576 124.717Z" fill="#343434"/>
</g>
<path d="M36.219 63.8982C32.7024 63.8982 29.9742 62.9004 28.0345 60.9049C26.0948 58.9093 25.1249 56.2091 25.1249 52.8041C25.1249 50.348 25.4668 48.0455 26.1506 45.8964C26.8344 43.7474 27.7693 41.8007 28.9555 40.0563C30.1556 38.3119 31.5302 36.8118 33.0792 35.5559C34.6282 34.2999 36.2748 33.337 38.0192 32.6672C39.7775 31.9974 41.5498 31.6625 43.336 31.6625C45.5409 31.6625 47.4736 32.116 49.1342 33.0231C50.8088 33.9162 52.1066 35.193 53.0277 36.8537C53.9626 38.5143 54.4301 40.4819 54.4301 42.7566C54.4301 45.8266 53.9277 48.6525 52.923 51.2342C51.9182 53.8019 50.5507 56.0346 48.8203 57.9325C47.1038 59.8164 45.1571 61.2817 42.9801 62.3283C40.8032 63.3749 38.5495 63.8982 36.219 63.8982ZM36.219 63.6051C37.3633 63.6051 38.4378 63.2284 39.4426 62.4748C40.4613 61.7212 41.3963 60.6956 42.2475 59.3978C43.1127 58.086 43.8802 56.5998 44.5501 54.9392C45.2339 53.2785 45.813 51.5272 46.2875 49.6852C46.7619 47.8431 47.1178 46.0081 47.355 44.18C47.6062 42.3379 47.7318 40.6075 47.7318 38.9888C47.7318 38.0817 47.655 37.2095 47.5015 36.3722C47.362 35.5349 47.1178 34.7883 46.7689 34.1325C46.434 33.4626 45.9804 32.9323 45.4083 32.5416C44.8501 32.1509 44.1593 31.9555 43.336 31.9555C42.2615 31.9555 41.2288 32.3323 40.238 33.0859C39.2612 33.8394 38.3402 34.8721 37.475 36.1838C36.6237 37.4816 35.8492 38.9609 35.1515 40.6215C34.4677 42.2821 33.8746 44.0334 33.3722 45.8755C32.8838 47.7175 32.5 49.5596 32.2209 51.4016C31.9558 53.2297 31.8232 54.9531 31.8232 56.5719C31.8232 58.0511 31.9558 59.314 32.2209 60.3606C32.5 61.4073 32.9606 62.2097 33.6025 62.7679C34.2444 63.326 35.1166 63.6051 36.219 63.6051ZM64.3196 63.8982C62.1427 63.8982 60.4541 63.3121 59.254 62.1399C58.0678 60.9677 57.4748 59.3698 57.4748 57.3464C57.4748 55.7416 57.8027 54.1437 58.4586 52.5529C59.1284 50.9481 60.0425 49.4898 61.2007 48.178C62.359 46.8523 63.6847 45.7918 65.1779 44.9963C66.685 44.2009 68.2898 43.8032 69.9923 43.8032C71.2343 43.8032 72.3227 44.0334 73.2577 44.494C74.1927 44.9405 74.9184 45.5196 75.4347 46.2313C75.951 46.9291 76.2092 47.6547 76.2092 48.4083C76.2092 49.3572 75.9091 50.1317 75.3091 50.7318C74.709 51.3318 73.9764 51.6319 73.1112 51.6319C72.3297 51.6319 71.632 51.4086 71.018 50.962C70.404 50.5015 70.0969 49.8038 70.0969 48.8688C70.0969 48.0315 70.383 47.3338 70.9552 46.7756C71.5413 46.2034 72.246 45.9174 73.0693 45.9174C73.5717 45.9174 74.0601 46.0081 74.5346 46.1895C75.0091 46.3709 75.3998 46.65 75.7068 47.0268C76.0138 47.3896 76.1673 47.8501 76.1673 48.4083H75.8952C75.8952 47.6966 75.658 47.0337 75.1835 46.4197C74.723 45.8057 74.1299 45.3103 73.4042 44.9335C72.6786 44.5428 71.9111 44.3474 71.1017 44.3474C70.0551 44.3474 69.0922 44.7242 68.213 45.4778C67.3339 46.2174 66.5524 47.1942 65.8686 48.4083C65.1848 49.6224 64.5987 50.9411 64.1103 52.3645C63.6219 53.7739 63.2521 55.1625 63.0009 56.53C62.7497 57.8837 62.6241 59.0698 62.6241 60.0885C62.6241 61.1072 62.8474 61.9096 63.2939 62.4957C63.7545 63.0679 64.4103 63.354 65.2616 63.354C66.4617 63.354 67.5851 63.0958 68.6317 62.5795C69.6783 62.0631 70.6272 61.3933 71.4785 60.57C72.3437 59.7327 73.0903 58.8396 73.7182 57.8906L73.9904 58.0581C73.3345 59.0349 72.546 59.9699 71.625 60.863C70.7179 61.7561 69.6574 62.4888 68.4433 63.0609C67.2432 63.6191 65.8686 63.8982 64.3196 63.8982ZM84.4058 63.8982C83.3313 63.8982 82.473 63.7517 81.8311 63.4586C81.2032 63.1516 80.7496 62.7679 80.4705 62.3073C80.2054 61.8329 80.0728 61.3375 80.0728 60.8212C80.0728 60.5002 80.1216 60.1164 80.2193 59.6699C80.331 59.2094 80.4426 58.7698 80.5542 58.3511L85.4315 40.0354H90.8739L85.0547 61.5328C85.0128 61.6724 84.971 61.8399 84.9291 62.0352C84.8872 62.2166 84.8663 62.405 84.8663 62.6004C84.8663 63.033 85.1594 63.2493 85.7455 63.2493C86.1641 63.2493 86.6176 63.1446 87.1061 62.9353C87.6084 62.726 88.1248 62.3771 88.655 61.8887C89.1993 61.4003 89.7505 60.7235 90.3087 59.8583C90.8669 58.9791 91.4111 57.8837 91.9414 56.5719L92.2554 56.6556C91.5856 58.2604 90.8809 59.6001 90.1412 60.6746C89.4156 61.7491 88.5853 62.5585 87.6503 63.1028C86.7293 63.6331 85.6478 63.8982 84.4058 63.8982ZM80.1984 44.5358V44.2218H93.5951V44.5358H80.1984ZM103.116 63.8982C100.842 63.8982 99.0973 63.326 97.8832 62.1818C96.6692 61.0375 96.0621 59.4187 96.0621 57.3255C96.0621 55.5671 96.397 53.8786 97.0669 52.2598C97.7367 50.6411 98.6508 49.1967 99.809 47.9269C100.967 46.657 102.293 45.6522 103.786 44.9126C105.293 44.173 106.877 43.8032 108.538 43.8032C110.812 43.8032 112.571 44.3963 113.813 45.5824C115.069 46.7686 115.697 48.4083 115.697 50.5015C115.697 52.218 115.369 53.8786 114.713 55.4834C114.057 57.0882 113.15 58.5256 111.992 59.7955C110.847 61.0514 109.515 62.0492 107.994 62.7888C106.472 63.5284 104.847 63.8982 103.116 63.8982ZM102.865 63.5842C103.437 63.5842 104.023 63.2981 104.623 62.726C105.223 62.1399 105.81 61.3584 106.382 60.3816C106.968 59.4047 107.519 58.3163 108.035 57.1161C108.552 55.9021 109.005 54.6531 109.396 53.3693C109.787 52.0714 110.094 50.8225 110.317 49.6224C110.54 48.4223 110.652 47.3617 110.652 46.4407C110.652 45.715 110.498 45.1498 110.191 44.7451C109.898 44.3405 109.431 44.1381 108.789 44.1381C108.217 44.1381 107.631 44.4242 107.031 44.9963C106.431 45.5685 105.838 46.343 105.251 47.3198C104.665 48.2967 104.114 49.3921 103.598 50.6062C103.095 51.8203 102.649 53.0692 102.258 54.3531C101.867 55.6369 101.56 56.8789 101.337 58.079C101.114 59.2791 101.002 60.3467 101.002 61.2817C101.002 61.9934 101.149 62.5585 101.442 62.9772C101.749 63.3819 102.223 63.5842 102.865 63.5842ZM127.428 63.8982C126.297 63.8982 125.244 63.661 124.267 63.1865C123.29 62.6981 122.418 62.0422 121.65 61.2189C120.883 60.3955 120.255 59.4745 119.766 58.4558L126.758 32.3951H123.492V32.0811H132.263L124.56 60.7165C124.56 61.484 124.678 62.1329 124.916 62.6632C125.167 63.1935 125.655 63.4586 126.381 63.4586C127.107 63.4586 127.825 63.1167 128.537 62.4329C129.249 61.7491 129.918 60.8491 130.546 59.7327C131.174 58.6023 131.733 57.3673 132.221 56.0277C132.709 54.688 133.093 53.3553 133.372 52.0296C133.651 50.6899 133.791 49.4898 133.791 48.4292C133.791 47.3407 133.623 46.4825 133.289 45.8546C132.954 45.2126 132.479 44.8917 131.865 44.8917C131.167 44.8917 130.532 45.2057 129.96 45.8336C129.388 46.4476 128.865 47.257 128.39 48.2618C127.916 49.2526 127.49 50.3341 127.114 51.5063C126.737 52.6645 126.402 53.7949 126.109 54.8973H125.816C126.29 53.1948 126.758 51.6668 127.218 50.3131C127.693 48.9456 128.209 47.7803 128.767 46.8174C129.339 45.8546 130.002 45.1219 130.756 44.6195C131.523 44.1032 132.437 43.8451 133.498 43.8451C135.368 43.8451 136.805 44.5009 137.81 45.8127C138.829 47.1244 139.338 48.8618 139.338 51.0248C139.338 52.6576 139.024 54.2414 138.396 55.7765C137.768 57.3115 136.903 58.693 135.8 59.9211C134.698 61.1351 133.428 62.105 131.991 62.8307C130.553 63.5424 129.032 63.8982 127.428 63.8982ZM150.467 63.8982C148.946 63.8982 147.676 63.6051 146.657 63.019C145.652 62.419 144.892 61.6166 144.375 60.6118C143.873 59.5931 143.622 58.4558 143.622 57.1999C143.622 55.4834 143.943 53.8228 144.585 52.218C145.227 50.6132 146.12 49.1828 147.264 47.9269C148.408 46.657 149.734 45.6522 151.241 44.9126C152.748 44.173 154.367 43.8032 156.098 43.8032C158.079 43.8032 159.621 44.2358 160.724 45.101C161.826 45.9662 162.377 47.0268 162.377 48.2827C162.377 49.3014 162.056 50.2224 161.414 51.0458C160.786 51.8691 159.879 52.5808 158.693 53.1809C157.521 53.7809 156.118 54.2624 154.486 54.6252C152.853 54.988 151.032 55.2183 149.022 55.316V55.0857C150.041 55.0159 150.997 54.7647 151.89 54.3321C152.783 53.8856 153.593 53.3274 154.318 52.6576C155.044 51.9738 155.672 51.2342 156.202 50.4387C156.733 49.6293 157.137 48.82 157.416 48.0106C157.709 47.2012 157.856 46.4546 157.856 45.7708C157.856 45.3522 157.772 44.9754 157.605 44.6405C157.437 44.3056 157.13 44.1381 156.684 44.1381C156.056 44.1381 155.421 44.4172 154.779 44.9754C154.151 45.5336 153.537 46.2872 152.937 47.2361C152.351 48.185 151.806 49.2386 151.304 50.3969C150.802 51.5551 150.362 52.7483 149.985 53.9763C149.609 55.2043 149.309 56.3835 149.085 57.5138C148.876 58.6442 148.771 59.635 148.771 60.4862C148.771 61.6166 149.002 62.3911 149.462 62.8097C149.936 63.2144 150.557 63.4168 151.325 63.4168C152.358 63.4168 153.376 63.2005 154.381 62.7679C155.4 62.3213 156.377 61.6864 157.312 60.863C158.247 60.0397 159.098 59.0489 159.865 57.8906L160.138 58.0581C159.482 59.0489 158.7 59.9908 157.793 60.8839C156.886 61.7631 155.825 62.4888 154.611 63.0609C153.411 63.6191 152.03 63.8982 150.467 63.8982ZM165.785 63.4796L170.599 44.5358H167.25V44.2218H175.895L171.185 63.4796H165.785ZM172.483 57.1999C172.734 56.1672 173.034 55.0438 173.383 53.8298C173.746 52.6157 174.165 51.4225 174.639 50.2503C175.127 49.0781 175.672 48.0106 176.272 47.0477C176.886 46.0709 177.57 45.2894 178.323 44.7033C179.091 44.1172 179.928 43.8241 180.835 43.8241C181.937 43.8241 182.83 44.1451 183.514 44.787C184.212 45.415 184.561 46.2244 184.561 47.2152C184.561 48.1641 184.268 48.9665 183.682 49.6224C183.096 50.2643 182.328 50.5853 181.379 50.5853C180.472 50.5853 179.719 50.2992 179.119 49.727C178.518 49.1549 178.218 48.4223 178.218 47.5291C178.218 46.65 178.518 45.9383 179.119 45.394C179.719 44.8498 180.479 44.5777 181.4 44.5777C182.251 44.5777 182.984 44.8079 183.598 45.2685C184.212 45.729 184.519 46.3779 184.519 47.2152H184.226C184.226 46.2941 183.912 45.5545 183.284 44.9963C182.67 44.4242 181.854 44.1381 180.835 44.1381C179.956 44.1381 179.153 44.4312 178.428 45.0173C177.702 45.5894 177.039 46.3569 176.439 47.3198C175.839 48.2687 175.302 49.3223 174.827 50.4806C174.367 51.6249 173.955 52.7831 173.592 53.9554C173.244 55.1276 172.943 56.2091 172.692 57.1999H172.483Z" fill="#FCFCFC"/>
<path d="M38.7758 81.1873C37.8966 82.0148 36.8536 82.4285 35.6469 82.4285C34.9746 82.4285 34.3798 82.3121 33.8626 82.0794C33.3455 81.8467 32.9145 81.5364 32.5697 81.1485C32.2249 80.7606 31.962 80.3124 31.781 79.8038C31.6086 79.2953 31.5224 78.7652 31.5224 78.2135C31.5224 77.6274 31.6129 77.093 31.7939 76.6103C31.9836 76.119 32.2465 75.6966 32.5826 75.3432C32.9188 74.9898 33.3153 74.714 33.7721 74.5157C34.2376 74.3175 34.7418 74.2184 35.2849 74.2184C35.6555 74.2184 35.9917 74.2615 36.2934 74.3476C36.6037 74.4338 36.8752 74.5459 37.1079 74.6838C37.3493 74.8217 37.5432 74.9812 37.6897 75.1622C37.8449 75.3346 37.9526 75.5113 38.013 75.6923H38.9697C38.8404 75.3992 38.6724 75.1277 38.4655 74.8777C38.2672 74.6278 38.0173 74.4123 37.7156 74.2313C37.4139 74.0503 37.0605 73.908 36.6554 73.8046C36.2503 73.7012 35.7891 73.6495 35.2719 73.6495C34.522 73.6495 33.8368 73.7572 33.2162 73.9727C32.6042 74.1882 32.0784 74.4985 31.6388 74.9036C31.1992 75.3001 30.8587 75.7828 30.6174 76.3517C30.376 76.912 30.2554 77.5412 30.2554 78.2394C30.2554 78.8428 30.3502 79.4332 30.5398 80.0107C30.7381 80.5796 31.0397 81.0882 31.4449 81.5364C31.85 81.976 32.3671 82.3337 32.9964 82.6095C33.6256 82.8767 34.3755 83.0103 35.2461 83.0103C35.7977 83.0103 36.2891 82.9586 36.72 82.8552C37.1596 82.7517 37.5389 82.6267 37.8578 82.4802C38.1854 82.3251 38.4569 82.1613 38.6724 81.9889C38.8879 81.8165 39.0516 81.6657 39.1637 81.5364L38.7758 81.1873ZM46.1266 78.3299C46.1266 78.8126 46.2172 79.3298 46.3982 79.8814C46.5878 80.4244 46.8809 80.9287 47.2774 81.3941C47.6739 81.8596 48.1781 82.2475 48.7901 82.5578C49.4021 82.8595 50.1347 83.0103 50.9881 83.0103C51.5656 83.0103 52.0871 82.9414 52.5525 82.8034C53.0266 82.6569 53.449 82.463 53.8196 82.2216C54.1989 81.9803 54.5264 81.7045 54.8022 81.3941C55.0781 81.0752 55.3022 80.7434 55.4746 80.3986C55.6556 80.0452 55.7892 79.6918 55.8754 79.3384C55.9702 78.985 56.0176 78.6488 56.0176 78.3299C56.0176 77.8472 55.9185 77.3343 55.7202 76.7913C55.522 76.2396 55.216 75.7311 54.8022 75.2656C54.3885 74.8002 53.8627 74.4166 53.2249 74.1149C52.5956 73.8046 51.85 73.6495 50.9881 73.6495C50.1347 73.6495 49.4021 73.8003 48.7901 74.102C48.1781 74.4037 47.6739 74.7872 47.2774 75.2527C46.8809 75.7095 46.5878 76.2138 46.3982 76.7654C46.2172 77.3171 46.1266 77.8386 46.1266 78.3299ZM47.3937 78.3299C47.3937 77.7265 47.4842 77.1749 47.6652 76.6749C47.8549 76.1664 48.1091 75.7311 48.4281 75.3691C48.7556 75.007 49.1392 74.7269 49.5788 74.5287C50.0184 74.3218 50.4968 74.2184 51.0139 74.2184C51.5225 74.2184 52.0009 74.3218 52.4491 74.5287C52.9059 74.7269 53.3024 75.007 53.6386 75.3691C53.9834 75.7311 54.2549 76.1664 54.4532 76.6749C54.6514 77.1749 54.7505 77.7265 54.7505 78.3299C54.7505 78.9333 54.6514 79.4892 54.4532 79.9978C54.2549 80.4977 53.9834 80.9287 53.6386 81.2907C53.3024 81.6527 52.9059 81.9372 52.4491 82.144C52.0009 82.3423 51.5225 82.4414 51.0139 82.4414C50.4968 82.4414 50.0184 82.3423 49.5788 82.144C49.1392 81.9372 48.7556 81.6527 48.4281 81.2907C48.1091 80.9287 47.8549 80.4977 47.6652 79.9978C47.4842 79.4892 47.3937 78.9333 47.3937 78.3299ZM64.2793 82.8552V73.8046H65.4558V82.144H70.1233V82.8552H64.2793ZM78.1177 82.8552V73.8046H79.2943V82.144H83.9618V82.8552H78.1177ZM91.9562 73.8046V82.8552H97.8002V82.144H93.1327V78.3557H97.1408V77.761H93.1327V74.5157H97.8002V73.8046H91.9562ZM113.41 81.1873C112.531 82.0148 111.488 82.4285 110.281 82.4285C109.609 82.4285 109.014 82.3121 108.497 82.0794C107.98 81.8467 107.549 81.5364 107.204 81.1485C106.859 80.7606 106.596 80.3124 106.415 79.8038C106.243 79.2953 106.157 78.7652 106.157 78.2135C106.157 77.6274 106.247 77.093 106.428 76.6103C106.618 76.119 106.881 75.6966 107.217 75.3432C107.553 74.9898 107.95 74.714 108.406 74.5157C108.872 74.3175 109.376 74.2184 109.919 74.2184C110.29 74.2184 110.626 74.2615 110.928 74.3476C111.238 74.4338 111.509 74.5459 111.742 74.6838C111.983 74.8217 112.177 74.9812 112.324 75.1622C112.479 75.3346 112.587 75.5113 112.647 75.6923H113.604C113.475 75.3992 113.307 75.1277 113.1 74.8777C112.901 74.6278 112.651 74.4123 112.35 74.2313C112.048 74.0503 111.695 73.908 111.29 73.8046C110.884 73.7012 110.423 73.6495 109.906 73.6495C109.156 73.6495 108.471 73.7572 107.85 73.9727C107.238 74.1882 106.713 74.4985 106.273 74.9036C105.833 75.3001 105.493 75.7828 105.252 76.3517C105.01 76.912 104.89 77.5412 104.89 78.2394C104.89 78.8428 104.984 79.4332 105.174 80.0107C105.372 80.5796 105.674 81.0882 106.079 81.5364C106.484 81.976 107.001 82.3337 107.631 82.6095C108.26 82.8767 109.01 83.0103 109.88 83.0103C110.432 83.0103 110.923 82.9586 111.354 82.8552C111.794 82.7517 112.173 82.6267 112.492 82.4802C112.82 82.3251 113.091 82.1613 113.307 81.9889C113.522 81.8165 113.686 81.6657 113.798 81.5364L113.41 81.1873ZM125.015 82.8552V74.5157H128.48V73.8046H120.373V74.5157H123.838V82.8552H125.015ZM136.868 73.8046V82.8552H138.044V73.8046H136.868ZM146.822 78.3299C146.822 78.8126 146.912 79.3298 147.093 79.8814C147.283 80.4244 147.576 80.9287 147.972 81.3941C148.369 81.8596 148.873 82.2475 149.485 82.5578C150.097 82.8595 150.83 83.0103 151.683 83.0103C152.261 83.0103 152.782 82.9414 153.247 82.8034C153.722 82.6569 154.144 82.463 154.515 82.2216C154.894 81.9803 155.221 81.7045 155.497 81.3941C155.773 81.0752 155.997 80.7434 156.17 80.3986C156.351 80.0452 156.484 79.6918 156.57 79.3384C156.665 78.985 156.713 78.6488 156.713 78.3299C156.713 77.8472 156.613 77.3343 156.415 76.7913C156.217 76.2396 155.911 75.7311 155.497 75.2656C155.083 74.8002 154.558 74.4166 153.92 74.1149C153.291 73.8046 152.545 73.6495 151.683 73.6495C150.83 73.6495 150.097 73.8003 149.485 74.102C148.873 74.4037 148.369 74.7872 147.972 75.2527C147.576 75.7095 147.283 76.2138 147.093 76.7654C146.912 77.3171 146.822 77.8386 146.822 78.3299ZM148.089 78.3299C148.089 77.7265 148.179 77.1749 148.36 76.6749C148.55 76.1664 148.804 75.7311 149.123 75.3691C149.451 75.007 149.834 74.7269 150.274 74.5287C150.713 74.3218 151.192 74.2184 151.709 74.2184C152.217 74.2184 152.696 74.3218 153.144 74.5287C153.601 74.7269 153.997 75.007 154.334 75.3691C154.678 75.7311 154.95 76.1664 155.148 76.6749C155.346 77.1749 155.445 77.7265 155.445 78.3299C155.445 78.9333 155.346 79.4892 155.148 79.9978C154.95 80.4977 154.678 80.9287 154.334 81.2907C153.997 81.6527 153.601 81.9372 153.144 82.144C152.696 82.3423 152.217 82.4414 151.709 82.4414C151.192 82.4414 150.713 82.3423 150.274 82.144C149.834 81.9372 149.451 81.6527 149.123 81.2907C148.804 80.9287 148.55 80.4977 148.36 79.9978C148.179 79.4892 148.089 78.9333 148.089 78.3299ZM172.266 73.8046V80.7218H172.215L165.039 73.6495H164.974V82.8552H165.569V75.938H165.621L172.796 83.0103H172.861V73.8046H172.266Z" fill="#FCFCFC"/>
</svg>
