<svg width="16" height="15" viewBox="0 0 16 15" fill="none" xmlns="http://www.w3.org/2000/svg">
<path d="M1.84794 1.69798C0.272691 3.27323 0.272692 5.82722 1.84794 7.40247L7.95783 13.5124L7.99983 13.4704L8.04188 13.5124L14.1518 7.40252C15.727 5.82727 15.727 3.27328 14.1518 1.69803C12.5765 0.122779 10.0225 0.12278 8.44728 1.69803L8.35344 1.79188C8.15817 1.98714 7.84159 1.98714 7.64633 1.79188L7.55243 1.69798C5.97718 0.122728 3.42319 0.122728 1.84794 1.69798Z" stroke="#DD8560"/>
<path d="M5.36881 4.95012C5.36881 5.12514 5.36719 5.29852 5.41641 5.46854C5.54172 5.90143 5.91773 5.95297 6.32746 5.95297C7.69476 5.95297 9.02734 5.38146 10.2046 4.72746C10.233 4.71164 10.7055 4.39784 10.4748 4.53879C10.1105 4.7614 9.73906 4.97316 9.36998 5.18809C8.90283 5.46014 8.41197 5.76388 7.89122 5.92237C7.67211 5.98905 7.42019 6.02712 7.19773 5.95297C6.87731 5.84616 6.48123 5.6162 6.23908 5.37846C6.18611 5.32645 6.02206 5.15313 6.0759 5.05891C6.11233 4.99515 6.38617 4.94815 6.43965 4.93313C6.90653 4.80198 7.38197 4.69605 7.85382 4.58468C8.43307 4.44796 9.00313 4.25469 9.58755 4.14105C9.72976 4.1134 9.87939 4.11702 10.0193 4.07816C10.5907 3.91944 11.2452 4.00167 11.8244 4.00167" stroke="#DD8560" stroke-width="3" stroke-linecap="round"/>
<path d="M4.63453 3.48156C4.50538 3.46541 4.31326 3.21975 4.2062 3.14501C4.05322 3.03821 3.96062 2.87005 3.80676 2.76427C3.65457 2.65963 3.21493 2.32813 3.38013 2.41072" stroke="#DD8560" stroke-width="3" stroke-linecap="round"/>
<path d="M4.51215 5.56203C4.07196 5.56203 3.66959 5.19448 3.38013 4.88893C3.25117 4.75281 3.13904 4.60025 3.00619 4.4674C2.92154 4.38275 2.85991 4.21481 2.75463 4.15465C2.70727 4.12759 2.65006 4.01869 2.62205 3.97108C2.58554 3.90902 2.52592 3.9359 2.49287 3.89459C2.4413 3.83012 2.46034 3.74912 2.48607 3.67193C2.50038 3.62901 2.49287 3.81144 2.49287 3.8487C2.49287 4.17141 2.43512 4.54371 2.55406 4.85154C2.61882 5.01915 2.67385 5.1931 2.75123 5.34786C2.8641 5.57361 2.94989 5.74535 3.11837 5.94447C3.34299 6.20993 3.57494 6.43384 3.83736 6.66345C3.97812 6.78662 4.07667 6.92601 4.2232 7.04589C4.40216 7.19231 4.59677 7.35055 4.75691 7.52012C4.91525 7.68777 5.15509 7.77713 5.33822 7.92465C5.58817 8.126 5.78475 8.45626 6.0878 8.59095C6.21678 8.64827 6.08918 8.5519 6.14729 8.68953C6.24421 8.91908 6.4665 9.08971 6.60622 9.29294C6.66024 9.37152 6.74859 9.42615 6.78299 9.5156C6.8161 9.60167 6.87744 9.70657 6.92917 9.78416" stroke="#DD8560" stroke-width="3" stroke-linecap="round"/>
<path d="M5.85834 9.93714C5.85834 9.77092 5.78208 9.5708 5.73426 9.40342C5.6957 9.26846 5.64417 9.10324 5.64417 8.95809" stroke="#DD8560" stroke-width="3" stroke-linecap="round"/>
<path d="M5.09346 7.97905C5.08192 8.07136 4.92894 8.14535 4.91159 8.2408C4.90481 8.27807 4.83145 8.342 4.86909 8.34619C5.02902 8.36396 5.18423 8.31742 5.33822 8.285" stroke="#DD8560" stroke-width="3" stroke-linecap="round"/>
<path d="M12.987 5.0725C12.9787 5.14748 12.8563 5.1756 12.8034 5.21358C12.6438 5.3283 12.477 5.42856 12.3173 5.54333C12.1536 5.661 11.9865 5.80103 11.8108 5.89687C11.4355 6.10158 11.1009 6.37952 10.7366 6.60566C10.312 6.86918 9.90326 7.13611 9.46687 7.36714C9.20448 7.50605 8.9676 7.68051 8.70369 7.81247C8.63146 7.84859 8.57544 7.91819 8.50652 7.96205C8.44077 8.00389 8.37607 7.68238 8.36374 7.6476C8.23953 7.29713 8.14871 6.93743 8.0306 6.58527C7.96201 6.38078 7.85717 6.19606 7.77903 5.99716C7.70789 5.81606 7.5689 5.64581 7.47988 5.47024C7.37898 5.27123 7.29631 5.11154 7.29631 4.88893C7.29631 4.7105 7.25897 4.44033 7.3575 4.28383C7.45279 4.13249 7.94009 3.63954 7.69405 3.53595C7.44409 3.4307 7.1983 3.32495 6.95976 3.1994C6.68469 3.05462 6.40812 2.85021 6.16259 2.65379C5.89673 2.4411 5.57319 2.27833 5.26343 2.13537C5.17761 2.09576 4.8364 1.85432 5.00337 2.10477C5.16441 2.34634 5.37232 2.5714 5.60168 2.74897C6.00236 3.05918 6.41398 3.41471 6.88328 3.61583C7.1762 3.74137 7.49047 3.78215 7.79943 3.8487C8.01148 3.89437 8.24159 3.95443 8.46063 3.93878C8.70902 3.92104 8.9607 3.83801 9.19831 3.77051C9.56598 3.66606 9.95117 3.57693 10.2827 3.37957C10.3273 3.35306 10.4497 3.30027 10.4782 3.25039C10.5027 3.20753 10.5228 3.13446 10.5564 3.10082C10.7476 2.9096 10.4922 2.80846 10.2929 2.80846C10.2295 2.80846 10.053 2.84471 10.1026 2.80506C10.1534 2.76441 10.2245 2.71861 10.281 2.68778C10.3734 2.63741 10.4588 2.53798 10.5564 2.50251C10.6754 2.45925 10.7504 2.34953 10.8759 2.34953C11.0493 2.34953 11.2227 2.34953 11.3961 2.34953C11.5697 2.34953 11.7293 2.3288 11.889 2.40393C11.9562 2.43554 11.7452 2.36453 11.6714 2.35633C11.4578 2.3326 11.2334 2.34688 11.0187 2.34953C10.8598 2.3515 10.6104 2.39315 10.4714 2.47191C10.3184 2.55864 10.0726 2.52798 9.93429 2.63169C9.85109 2.69409 9.50227 2.79823 9.80851 2.83226C10.2745 2.88403 10.7473 2.80846 11.2125 2.80846C11.5059 2.80846 11.8067 2.832 12.0896 2.90705C12.1165 2.9142 12.7966 3.07533 12.6743 2.90705C12.6573 2.88366 12.5804 2.66485 12.6369 2.77787C12.826 3.15604 13.2772 3.49328 13.5989 3.74671C13.8124 3.9149 13.8414 4.07364 13.7383 4.30932C13.6272 4.5633 13.5585 4.82155 13.4765 5.0878C13.3978 5.34375 13.1915 5.53144 13.1094 5.77789C13.059 5.92904 12.8825 6.06308 12.8034 6.20453C12.7338 6.32917 12.6525 6.48437 12.5587 6.58867C12.3076 6.86765 12.1016 7.20115 11.8482 7.48272C11.6447 7.70885 11.4319 7.96413 11.1955 8.15582C10.8779 8.41336 10.6466 8.767 10.3558 9.04988C10.2567 9.14633 10.1336 9.23363 10.0567 9.34903C10.0159 9.41026 9.95202 9.42819 9.9105 9.48501C9.80337 9.6316 9.65612 9.80088 9.50596 9.90654C9.38578 9.99111 9.23988 10.1242 9.14562 10.2363C9.02898 10.375 8.88377 10.4777 8.75808 10.6034C8.6458 10.7157 8.52553 10.8549 8.45213 10.9944C8.41914 11.0571 8.3527 11.1737 8.29915 11.2153C8.2771 11.2325 8.30595 10.952 8.30595 10.9162C8.30595 10.8244 8.30595 10.7326 8.30595 10.6408" stroke="#DD8560" stroke-width="3" stroke-linecap="round"/>
<path d="M7.3575 10.5184C7.3575 10.682 7.34917 10.9011 7.45609 11.0318C7.5321 11.1247 7.45534 10.9639 7.43399 10.9468C7.38434 10.9071 7.42947 10.8028 7.44929 10.7632" stroke="#DD8560" stroke-width="3" stroke-linecap="round"/>
<path d="M7.3881 8.95809C7.3881 9.13142 7.44182 9.29308 7.46289 9.46461C7.49757 9.74703 7.46066 10.0589 7.51728 10.3349C7.55368 10.5123 7.60226 10.6962 7.60226 10.8788C7.60226 11.12 7.7126 11.5406 7.84702 11.7423" stroke="#DD8560" stroke-width="3" stroke-linecap="round"/>
</svg>
