<svg width="21" height="20" viewBox="0 0 21 20" fill="none" xmlns="http://www.w3.org/2000/svg">
<g opacity="0.5">
<path d="M3.37694 7.84084C3.83291 6.25068 4.78058 4.8457 6.08414 3.82725C7.3877 2.8088 8.98021 2.22917 10.6334 2.17144C12.2867 2.11371 13.9157 2.58084 15.2872 3.50587C16.6586 4.43091 17.702 5.76637 18.2677 7.32084" stroke="black" stroke-linejoin="round"/>
<path d="M18.124 13.0452C17.5347 14.4418 16.5529 15.6374 15.2976 16.4871C14.0423 17.3367 12.5675 17.8039 11.052 17.832C9.53641 17.8601 8.04527 17.4478 6.75936 16.6453C5.47345 15.8427 4.44801 14.6843 3.80741 13.3105" stroke="black" stroke-linejoin="round"/>
<path d="M7.33432 12.5202L3.62253 12.7632L2.24414 16.294" stroke="black"/>
<path d="M14.3956 7.80029L18.2503 7.79082L19.5664 4.28137" stroke="black"/>
</g>
</svg>
